<svg xmlns="http://www.w3.org/2000/svg" viewBox="0 0 512 512" width="512" height="512">
  <defs>
    <linearGradient id="shakeBg" x1="0%" y1="0%" x2="100%" y2="100%">
      <stop offset="0%" stop-color="#10b981"/>
      <stop offset="100%" stop-color="#059669"/>
    </linearGradient>
    <linearGradient id="glassGrad" x1="0%" y1="0%" x2="100%" y2="100%">
      <stop offset="0%" stop-color="#ffffff" stop-opacity="0.95"/>
      <stop offset="100%" stop-color="#f0fdf4" stop-opacity="0.85"/>
    </linearGradient>
    <linearGradient id="liquidGrad" x1="0%" y1="0%" x2="0%" y2="100%">
      <stop offset="0%" stop-color="#34d399"/>
      <stop offset="100%" stop-color="#059669"/>
    </linearGradient>
  </defs>
  <rect width="512" height="512" rx="112" fill="url(#shakeBg)"/>
  <!-- Straw -->
  <path d="M 285 70 L 330 140 L 290 280" fill="none" stroke="#fef08a" stroke-width="26" stroke-linecap="round" stroke-linejoin="round"/>
  <!-- Cup Glass Outline -->
  <path d="M 160 170 L 180 410 C 182 430 198 445 218 445 L 294 445 C 314 445 330 430 332 410 L 352 170 Z" fill="url(#glassGrad)" filter="drop-shadow(0 12px 24px rgba(0,0,0,0.18))"/>
  <!-- Shake Liquid -->
  <path d="M 174 240 Q 210 230 256 240 T 338 240 L 326 405 C 325 418 314 428 300 428 L 212 428 C 198 428 187 418 186 405 Z" fill="url(#liquidGrad)"/>
  <!-- Cream / Froth Bubbles -->
  <ellipse cx="220" cy="225" rx="38" ry="18" fill="#ffffff" opacity="0.9"/>
  <ellipse cx="270" cy="220" rx="42" ry="22" fill="#ffffff" opacity="0.95"/>
  <ellipse cx="298" cy="228" rx="26" ry="14" fill="#ffffff" opacity="0.85"/>
  <!-- Leaf garnish -->
  <path d="M 230 160 C 230 130 265 130 270 155 C 255 165 240 165 230 160 Z" fill="#22c55e"/>
  <path d="M 270 155 C 290 140 310 160 295 175 C 280 175 270 165 270 155 Z" fill="#16a34a"/>
</svg>
